<svg width="348" height="60" viewBox="0 0 348 60" fill="none" xmlns="http://www.w3.org/2000/svg">
<g clip-path="url(#clip0_3_7)">
<path d="M94.5032 15.0967C97.6198 15.0967 100.326 15.6122 102.623 16.6432C104.919 17.6743 106.688 19.1506 107.93 21.0721C109.172 22.9936 109.793 25.2548 109.793 27.8559C109.793 30.4335 109.172 32.6831 107.93 34.6046C106.688 36.5026 104.919 37.9672 102.623 38.9982C100.326 40.0293 97.6198 40.5448 94.5032 40.5448H88.4927V49.5431H78.7563V15.0967H94.5032ZM93.9057 32.8822C95.9209 32.8822 97.4323 32.437 98.4399 31.5466C99.4476 30.6796 99.9514 29.4493 99.9514 27.8559C99.9514 26.239 99.4476 24.9854 98.4399 24.0949C97.4323 23.2279 95.9209 22.7944 93.9057 22.7944H88.4927V32.8822H93.9057ZM141.849 36.2566C141.849 36.3269 141.803 37.1002 141.709 38.5764H122.306C122.705 39.959 123.466 41.0135 124.591 41.7399C125.716 42.4897 127.134 42.8647 128.844 42.8647C130.133 42.8647 131.246 42.6772 132.183 42.3023C133.121 41.9508 134.058 41.365 134.995 40.5448L139.916 45.6766C137.339 48.5589 133.554 50 128.563 50C125.446 50 122.705 49.4025 120.338 48.2074C117.971 47.0357 116.144 45.3954 114.855 43.2865C113.566 41.2009 112.921 38.8225 112.921 36.1511C112.921 33.5267 113.542 31.1716 114.784 29.0861C116.05 27.024 117.807 25.3954 120.057 24.2004C122.283 23.0287 124.79 22.4429 127.579 22.4429C130.227 22.4429 132.64 22.9936 134.82 24.0949C136.975 25.1963 138.686 26.778 139.951 28.8401C141.217 30.9256 141.849 33.3978 141.849 36.2566ZM127.614 29.0861C126.185 29.0861 124.978 29.4962 123.994 30.3163C123.033 31.1365 122.424 32.2496 122.166 33.6555H133.097C132.816 32.2496 132.195 31.1365 131.234 30.3163C130.274 29.4962 129.067 29.0861 127.614 29.0861ZM162.271 41.9156L164.591 48.4534C163.794 48.9455 162.834 49.3322 161.709 49.6134C160.561 49.8711 159.354 50 158.088 50C154.597 50 151.926 49.1447 150.074 47.4341C148.2 45.7235 147.262 43.181 147.262 39.8067V30.8436H143.361V23.8489H147.262V16.9244H156.612V23.8489H162.693V30.8436H156.612V39.7012C156.612 40.662 156.858 41.4118 157.35 41.9508C157.866 42.4897 158.557 42.7592 159.424 42.7592C160.502 42.7592 161.451 42.478 162.271 41.9156ZM209.934 22.6186H192.675V30.2109H207.895V37.7329H192.675V49.5431H182.939V15.0967H209.934V22.6186ZM214.081 49.5431V22.8647H223.431V49.5431H214.081ZM218.756 19.9121C217.046 19.9121 215.663 19.4435 214.609 18.5062C213.578 17.5454 213.062 16.362 213.062 14.9561C213.062 13.5501 213.578 12.3667 214.609 11.406C215.663 10.4687 217.046 10 218.756 10C220.467 10 221.849 10.4452 222.904 11.3357C223.935 12.2496 224.45 13.4095 224.45 14.8155C224.45 16.2917 223.935 17.5103 222.904 18.471C221.849 19.4318 220.467 19.9121 218.756 19.9121ZM246.841 22.4429C250.168 22.4429 252.839 23.4271 254.855 25.3954C256.87 27.3638 257.878 30.3281 257.878 34.2882V49.5431H248.528V35.8348C248.528 32.1793 247.063 30.3515 244.134 30.3515C242.541 30.3515 241.252 30.8787 240.268 31.9332C239.307 32.9877 238.827 34.5577 238.827 36.6432V49.5431H229.477V22.8647H238.405V25.7821C239.436 24.7042 240.678 23.8723 242.131 23.2865C243.583 22.7241 245.153 22.4429 246.841 22.4429ZM282.728 13.0228H292.078V49.5431H283.185V46.9069C281.428 48.9689 278.815 50 275.347 50C272.91 50 270.695 49.4376 268.704 48.3128C266.712 47.1646 265.13 45.5477 263.958 43.4622C262.787 41.3532 262.201 38.9162 262.201 36.1511C262.201 33.4095 262.787 30.9959 263.958 28.9104C265.13 26.8248 266.712 25.2197 268.704 24.0949C270.695 22.9936 272.91 22.4429 275.347 22.4429C278.534 22.4429 280.994 23.3568 282.728 25.1845V13.0228ZM277.315 42.5483C278.932 42.5483 280.256 41.9859 281.287 40.8612C282.341 39.7364 282.869 38.1664 282.869 36.1511C282.869 34.1828 282.353 32.6479 281.322 31.5466C280.291 30.4218 278.955 29.8594 277.315 29.8594C275.675 29.8594 274.327 30.4218 273.273 31.5466C272.218 32.6479 271.691 34.1828 271.691 36.1511C271.691 38.1664 272.218 39.7364 273.273 40.8612C274.327 41.9859 275.675 42.5483 277.315 42.5483ZM325.329 36.2566C325.329 36.3269 325.282 37.1002 325.189 38.5764H305.821C306.196 39.959 306.958 41.0135 308.106 41.7399C309.231 42.4897 310.648 42.8647 312.359 42.8647C313.624 42.8647 314.726 42.6772 315.663 42.3023C316.6 41.9508 317.549 41.365 318.51 40.5448L323.431 45.6766C320.83 48.5589 317.034 50 312.043 50C308.926 50 306.196 49.4025 303.853 48.2074C301.486 47.0357 299.647 45.3954 298.334 43.2865C297.046 41.2009 296.401 38.8225 296.401 36.1511C296.401 33.5267 297.034 31.1716 298.299 29.0861C299.565 27.024 301.31 25.3954 303.537 24.2004C305.763 23.0287 308.27 22.4429 311.059 22.4429C313.73 22.4429 316.143 22.9936 318.299 24.0949C320.479 25.1963 322.189 26.778 323.431 28.8401C324.696 30.9256 325.329 33.3978 325.329 36.2566ZM311.129 29.0861C309.676 29.0861 308.469 29.4962 307.508 30.3163C306.548 31.1365 305.927 32.2496 305.646 33.6555H316.577C316.319 32.2496 315.71 31.1365 314.749 30.3163C313.765 29.4962 312.558 29.0861 311.129 29.0861ZM338.581 26.0633C339.541 24.8682 340.783 23.966 342.306 23.3568C343.829 22.7475 345.575 22.4429 347.544 22.4429V30.8436C346.677 30.7499 345.974 30.703 345.435 30.703C343.419 30.703 341.849 31.2419 340.725 32.3199C339.6 33.3978 339.037 35.0615 339.037 37.3111V49.5431H329.688V22.8647H338.581V26.0633Z" fill="#1A1A1A"/>
<path d="M18.7851 60.456C18.5212 60.4378 18.2566 60.4233 17.9927 60.3993C16.5141 60.2605 15.1584 59.7785 13.9546 58.9069C11.8777 57.4029 10.5496 55.4031 10.0204 52.8864C9.82745 51.945 9.76265 50.9818 9.82777 50.023C9.8961 48.8926 10.1215 47.7964 10.4806 46.7241C11.0541 45.0129 11.9192 43.4602 13.0139 42.0288C13.839 40.9543 14.7736 39.9683 15.8025 39.0869C16.7657 38.2568 17.6402 37.3401 18.4594 36.3696C19.4902 35.1462 20.4229 33.8493 21.3439 32.5438C22.1581 31.3894 22.9584 30.2277 23.8228 29.1119C24.4727 28.2701 25.1582 27.4596 25.9222 26.7188C26.8781 25.7934 27.9329 25.0098 29.1759 24.5016C30.1001 24.1214 31.0868 23.9163 32.0859 23.8968C33.2215 23.8669 34.3562 23.9871 35.4603 24.2545C37.157 24.671 38.6269 25.4961 39.8925 26.697C40.7582 27.5221 41.491 28.4555 42.1721 29.4325C42.8947 30.4684 43.5584 31.542 44.2432 32.6034C45.0152 33.7985 45.8119 34.9746 46.7024 36.0869C47.5878 37.1939 48.5696 38.2202 49.6363 39.1538C50.9288 40.2857 52.0759 41.5454 53.0529 42.9601C53.886 44.1733 54.565 45.4636 55.0389 46.8579C55.4082 47.9439 55.6401 49.0547 55.699 50.2025C55.7899 51.9457 55.4889 53.6126 54.698 55.1806C53.966 56.6338 52.9061 57.8005 51.5751 58.7273C50.5966 59.4085 49.5411 59.9261 48.3787 60.2139C47.9673 60.3172 47.5493 60.3913 47.1269 60.432C47.0681 60.4378 47.0114 60.4487 46.9547 60.4575C46.8994 60.4887 46.8384 60.4655 46.7802 60.4727C46.7322 60.4793 46.6813 60.4575 46.6355 60.488H45.5524C45.5095 60.4567 45.4608 60.4785 45.415 60.4727H45.1868C44.2628 60.4429 43.3658 60.2503 42.4716 60.0431C40.9567 59.6898 39.4716 59.2253 37.9646 58.8415C36.7441 58.5318 35.5134 58.2803 34.2609 58.1371C33.3929 58.0375 32.5228 58.0266 31.6548 58.0564C30.9606 58.0796 30.2714 58.1865 29.5888 58.3137C28.2411 58.5674 26.9203 58.9302 25.5987 59.2907C24.2008 59.6745 22.8029 60.0562 21.3715 60.2903C20.7893 60.384 20.2063 60.4647 19.6145 60.4589C19.4931 60.4575 19.3725 60.4756 19.2496 60.4727C19.0933 60.464 18.9392 60.4916 18.7851 60.456ZM45.4906 0.514145C47.4388 0.748219 48.9268 1.73831 50.0638 3.29977C50.8431 4.37055 51.333 5.57145 51.6369 6.85523C51.8964 7.9609 51.9945 9.08329 51.9575 10.2188C51.8936 12.2823 51.3947 14.3092 50.4934 16.1666C49.8661 17.4692 49.0562 18.644 48.024 19.6573C47.1044 20.558 46.0642 21.2777 44.8502 21.7262C43.9975 22.041 43.1208 22.1965 42.2121 22.1427C40.639 22.0519 39.3036 21.4267 38.1813 20.3348C37.2246 19.4029 36.5725 18.2761 36.1211 17.0287C35.8105 16.1591 35.6041 15.2558 35.5061 14.3376C35.434 13.7096 35.4075 13.0772 35.4269 12.4454C35.4725 10.9642 35.7416 9.49838 36.2251 8.09756C36.739 6.59862 37.4674 5.21671 38.4619 3.98091C39.2986 2.94139 40.2763 2.06252 41.4496 1.41337C42.3019 0.933644 43.2412 0.628453 44.2127 0.5156C44.2425 0.49888 44.2752 0.506149 44.3057 0.503968H44.3988C44.4438 0.498153 44.4918 0.519961 44.5318 0.487976H45.17C45.2115 0.520688 45.258 0.49888 45.3031 0.503968H45.3968C45.4266 0.504695 45.4601 0.496699 45.4906 0.514145ZM0.680708 23.5181C0.715499 22.925 0.813959 22.3375 0.974391 21.7655C1.2768 20.6496 1.77184 19.6326 2.54312 18.7617C3.40527 17.7898 4.47096 17.161 5.74747 16.9073C6.78408 16.7023 7.80688 16.7903 8.81224 17.1C9.96807 17.4569 10.9901 18.0639 11.8988 18.8541C13.3105 20.0775 14.3224 21.583 15.0232 23.3058C15.3887 24.2049 15.644 25.1449 15.7836 26.1053C15.8519 26.5727 15.8846 27.043 15.8941 27.5155C15.9156 28.4074 15.8161 29.298 15.5982 30.163C15.3016 31.3211 14.8022 32.3751 14.0062 33.2772C13.0924 34.3124 11.9533 34.9565 10.5881 35.1782C9.58642 35.341 8.60142 35.2313 7.6375 34.9201C6.34137 34.4992 5.23061 33.7766 4.25215 32.8411C3.29768 31.931 2.53949 30.874 1.94849 29.6985C1.36677 28.5527 0.97121 27.3217 0.776664 26.0515C0.743225 25.8254 0.715601 25.5993 0.68507 25.374C0.661081 25.2707 0.670531 25.1653 0.645815 25.0628C0.634184 25.02 0.640726 24.9792 0.638546 24.9349C0.630549 24.8804 0.655265 24.8222 0.621826 24.7677V23.939C0.673439 23.8634 0.647996 23.7791 0.653812 23.6984C0.658173 23.638 0.642907 23.5741 0.680708 23.5181ZM14.3588 10.2253C14.3653 8.58025 14.5994 7.09657 15.1497 5.66886C15.5648 4.58936 16.1347 3.60218 16.9285 2.75239C17.7834 1.83499 18.7989 1.17711 20.0238 0.867437C21.2487 0.556308 22.4525 0.644994 23.636 1.07316C24.6784 1.45117 25.5878 2.04726 26.3954 2.79964C27.685 3.99909 28.6082 5.44715 29.2661 7.0704C29.6841 8.10265 29.9719 9.1698 30.1362 10.2697C30.2293 10.8934 30.2831 11.5222 30.2962 12.1553C30.313 12.9512 30.2568 13.7469 30.1282 14.5324C29.8549 16.176 29.2973 17.707 28.3029 19.0605C27.6843 19.9001 26.9333 20.5944 26.0116 21.0945C25.0045 21.6473 23.8569 21.8913 22.712 21.796C21.6572 21.7153 20.6846 21.3707 19.7774 20.8328C18.5939 20.132 17.6358 19.187 16.8384 18.0748C15.8926 16.7539 15.2427 15.2935 14.8313 13.7241C14.6067 12.8669 14.4612 11.9909 14.3966 11.1071C14.3704 10.7749 14.3479 10.4405 14.3588 10.2253ZM66.0448 24.482V24.6732C65.9721 26.2594 65.5476 27.7525 64.8621 29.1766C64.3293 30.2891 63.6277 31.3126 62.7823 32.2108C61.689 33.3696 60.4205 34.2731 58.9121 34.8154C58.0085 35.1404 57.078 35.3003 56.1163 35.2472C54.6966 35.1673 53.4571 34.6526 52.4147 33.6843C51.554 32.884 50.9863 31.8997 50.6286 30.7918C50.3124 29.8042 50.1705 28.7691 50.2092 27.7329C50.2797 25.4408 51.0044 23.3574 52.2599 21.4507C52.6826 20.8069 53.1703 20.2082 53.7152 19.6639C54.8369 18.5466 56.1192 17.6873 57.6377 17.2003C58.5013 16.9255 59.3839 16.7997 60.2882 16.8703C61.6693 16.9771 62.8739 17.4998 63.8843 18.4528C64.7959 19.3128 65.3709 20.3748 65.7184 21.567C65.9103 22.2256 66.0222 22.8995 66.0448 23.5864V23.7791C66.0375 24.0131 66.0382 24.2472 66.0448 24.482Z" fill="#FA4D16"/>
</g>
<defs>
<clipPath id="clip0_3_7">
<rect width="348" height="60" fill="white"/>
</clipPath>
</defs>
</svg>