<svg width="36" height="37" viewBox="0 0 36 37" fill="none" xmlns="http://www.w3.org/2000/svg">
<path d="M9.44403 8.14398C14.1694 3.41864 21.8307 3.41864 26.556 8.14398C31.2814 12.8693 31.2814 20.5306 26.556 25.256L18 33.812L9.44403 25.256C4.71869 20.5306 4.71869 12.8693 9.44403 8.14398ZM18 20.8C20.2644 20.8 22.1 18.9643 22.1 16.7C22.1 14.4356 20.2644 12.6 18 12.6C15.7357 12.6 13.9 14.4356 13.9 16.7C13.9 18.9643 15.7357 20.8 18 20.8Z" fill="#111827"/>
<path d="M9.44403 8.14398C14.1694 3.41864 21.8307 3.41864 26.556 8.14398C31.2814 12.8693 31.2814 20.5306 26.556 25.256L18 33.812L9.44403 25.256C4.71869 20.5306 4.71869 12.8693 9.44403 8.14398ZM18 20.8C20.2644 20.8 22.1 18.9643 22.1 16.7C22.1 14.4356 20.2644 12.6 18 12.6C15.7357 12.6 13.9 14.4356 13.9 16.7C13.9 18.9643 15.7357 20.8 18 20.8Z" stroke="black"/>
<path d="M9.44403 8.14398C14.1694 3.41864 21.8307 3.41864 26.556 8.14398C31.2814 12.8693 31.2814 20.5306 26.556 25.256L18 33.812L9.44403 25.256C4.71869 20.5306 4.71869 12.8693 9.44403 8.14398ZM18 20.8C20.2644 20.8 22.1 18.9643 22.1 16.7C22.1 14.4356 20.2644 12.6 18 12.6C15.7357 12.6 13.9 14.4356 13.9 16.7C13.9 18.9643 15.7357 20.8 18 20.8Z" stroke="black" stroke-opacity="0.2"/>
</svg>
